<?xml version="1.0" standalone="no"?>
<!DOCTYPE svg PUBLIC "-//W3C//DTD SVG 20010904//EN"
 "http://www.w3.org/TR/2001/REC-SVG-20010904/DTD/svg10.dtd">
<svg version="1.0" xmlns="http://www.w3.org/2000/svg"
 width="512.000000pt" height="512.000000pt" viewBox="0 0 512.000000 512.000000"
 preserveAspectRatio="xMidYMid meet">
<metadata>
Created by potrace 1.11, written by Peter Selinger 2001-2013
</metadata>
<g transform="translate(0.000000,512.000000) scale(0.100000,-0.100000)"
fill="#000000" stroke="none">
<path d="M2417 4179 c-283 -47 -537 -234 -663 -489 -65 -133 -85 -216 -89
-380 -3 -127 -1 -156 19 -235 26 -101 77 -216 131 -293 36 -53 43 -68 25 -57
-15 9 -172 9 -240 1 -90 -12 -170 -36 -265 -82 -239 -113 -415 -320 -486 -574
-38 -136 -42 -260 -14 -423 12 -69 65 -202 112 -280 54 -92 179 -224 263 -279
93 -61 215 -115 301 -134 93 -19 127 -22 229 -20 245 6 449 95 622 270 67 67
157 199 180 263 7 18 14 33 18 33 3 0 13 -20 23 -44 49 -119 177 -272 301
-361 235 -167 551 -209 828 -109 253 92 463 309 547 565 12 37 14 47 32 134
12 62 14 191 4 265 -17 125 -68 266 -137 372 -47 73 -162 194 -222 235 -22 15
-43 31 -46 34 -3 4 -48 27 -100 52 -89 42 -169 67 -265 82 -52 8 -232 8 -245
0 -17 -11 -11 7 15 40 69 92 132 248 156 389 11 65 8 262 -5 311 -50 196 -122
330 -245 454 -128 130 -288 216 -476 256 -48 11 -255 13 -308 4z m133 -1790
c61 0 119 2 130 6 14 5 8 -10 -27 -62 -25 -37 -55 -89 -66 -115 -11 -27 -23
-48 -27 -48 -3 0 -17 24 -31 53 -13 28 -43 81 -67 115 -24 35 -38 61 -32 57 6
-4 60 -7 120 -6z"/>
</g>
</svg>
